# xmcd
#
# Track frame offsets:
#	150
#	14291
#	27001
#	41021
#	57016
#	75319
#	95010
#	115923
#	129339
#	153959
#	171834
#	190561
#	207984
#	226345
#	244492
#	260843
#
# Disc length: 3665 seconds
#
# Revision: 0
# Processed by: cddbd v1.5.2PL0 Copyright (c) Steve Scherf et al.
# Submitted via: EZCDAudioConverter 2.2.2.1
#
DISCID=ca0e4f10
DTITLE=关牧村 - 老歌历程
DYEAR=1900
DGENRE=
TTITLE0=天上红玫瑰
TTITLE1=家乡有颗相思柳
TTITLE2=想念你
TTITLE3=沙滩上
TTITLE4=含苞欲放的花
TTITLE5=梭罗河
TTITLE6=草原
TTITLE7=五彩缤纷
TTITLE8=海鸥
TTITLE9=深深的海洋
TTITLE10=鸽子
TTITLE11=小河淌水
TTITLE12=星星索
TTITLE13=草原之夜
TTITLE14=马铃声声响
TTITLE15=孔雀向往的地方
EXTD=
EXTT0=
EXTT1=
EXTT2=
EXTT3=
EXTT4=
EXTT5=
EXTT6=
EXTT7=
EXTT8=
EXTT9=
EXTT10=
EXTT11=
EXTT12=
EXTT13=
EXTT14=
EXTT15=
PLAYORDER=
